<?xml version="1.0" encoding="UTF-8"?>
<!DOCTYPE svg PUBLIC "-//W3C//DTD SVG 1.1//EN" "http://www.w3.org/Graphics/SVG/1.1/DTD/svg11.dtd">
<!-- Creator: CorelDRAW X7 -->
<svg xmlns="http://www.w3.org/2000/svg" xml:space="preserve" width="180.622mm" height="143.581mm" version="1.1" style="shape-rendering:geometricPrecision; text-rendering:geometricPrecision; image-rendering:optimizeQuality; fill-rule:evenodd; clip-rule:evenodd"
viewBox="0 0 22174 17627"
 xmlns:xlink="http://www.w3.org/1999/xlink">
 <defs>
  <style type="text/css">
   <![CDATA[
    .fil0 {fill:#3C3C3C}
   ]]>
  </style>
 </defs>
 <g id="Слой_x0020_1">
  <metadata id="CorelCorpID_0Corel-Layer"/>
  <g id="_463069096">
   <path class="fil0" d="M7709 6929c0,-928 136,-1544 722,-2265 225,-277 246,-311 577,-550 956,-693 2254,-822 3321,-289 349,175 384,207 658,425 229,181 374,340 543,582 805,1153 800,2611 1,3761 -610,877 -2023,1435 -2098,1714l915 255c1433,444 2744,965 3676,2257 333,461 606,981 606,1776l0 2295 -11303 0c-100,0 -130,-30 -130,-130l0 -2078c0,-886 266,-1261 632,-1794l587 -625c246,-197 293,-284 669,-544 959,-663 1460,-802 2492,-1146l684 -226c159,-52 132,-7 220,-126 -141,-38 -777,-464 -945,-572 -651,-417 -1140,-782 -1511,-1520 -141,-281 -316,-801 -316,-1200zm-780 -303c0,1109 388,2105 1094,2805l682 617 -742 296c-922,377 -1522,890 -2234,1491 -124,105 -131,165 -239,281 -487,520 -1029,1375 -1029,2176l0 3335 12906 0 0 -3422c0,-1183 -1003,-2228 -1787,-2934 -199,-179 -723,-501 -960,-642 -439,-262 -1390,-580 -1454,-668 340,-91 964,-863 1172,-1210 1074,-1796 589,-4057 -1147,-5311 -1120,-810 -2691,-934 -3952,-351 -1358,628 -2310,2035 -2310,3537z"/>
   <path class="fil0" d="M2382 4071c0,808 92,1315 433,1992 131,261 225,417 396,644 84,112 137,174 228,291 95,120 164,161 242,278 -697,162 -1883,1082 -2349,1548 -621,621 -1332,1662 -1332,2609l0 3682 3898 0 0 -780 -3162 0 0 -2512c0,-736 205,-1250 490,-1719 232,-383 701,-886 1050,-1158 453,-353 543,-388 990,-656 440,-263 1562,-638 2061,-754 -151,-207 -2578,-1196 -2149,-3882 77,-484 202,-757 387,-1128 514,-1031 1702,-1746 3061,-1746 970,0 1727,383 2370,965l489 637 649 -390c-253,-478 -917,-1111 -1400,-1371 -1532,-825 -3001,-865 -4481,124 -1074,717 -1871,1989 -1871,3326z"/>
   <path class="fil0" d="M12040 1992c134,71 195,100 329,190 126,85 194,133 320,200l465 -618 609 -474c1275,-797 3151,-652 4156,366 571,578 931,1097 1077,1998 262,1624 -502,2773 -1690,3561 -95,64 -144,96 -234,156l-154 106c-79,60 -30,23 -71,59 1090,254 2187,737 3051,1410 887,691 1540,1690 1540,2921l0 2468 -3162 0 0 780 3898 0 0 -3682c0,-1360 -1346,-2782 -2373,-3473 -255,-173 -1024,-618 -1308,-684 80,-121 151,-160 247,-273 1388,-1641 1432,-3918 2,-5520 -306,-344 -365,-423 -795,-721 -236,-164 -397,-257 -666,-374 -497,-216 -1089,-388 -1690,-388 -1537,0 -3025,998 -3551,1992z"/>
  </g>
 </g>
</svg>
